<?xml version="1.0" encoding="UTF-8"?>
<svg width="800px" height="600px" viewBox="0 0 800 600" version="1.1" xmlns="http://www.w3.org/2000/svg">
    <g stroke="none" fill="#2b0f14" fill-rule="evenodd">
        <path d="M600,400 L700,400 L700,420 L600,420 L600,400 Z M550,420 L750,420 L750,440 L550,440 L550,420 Z M500,440 L800,440 L800,500 L500,500 L500,440 Z M450,460 L500,460 L500,480 L450,480 L450,460 Z M400,480 L450,480 L450,500 L400,500 L400,480 Z M350,500 L800,500 L800,520 L350,520 L350,500 Z M300,520 L800,520 L800,540 L300,540 L300,520 Z"></path>
        <circle cx="400" cy="530" r="40"></circle>
        <circle cx="500" cy="530" r="40"></circle>
        <circle cx="600" cy="530" r="40"></circle>
        <circle cx="700" cy="530" r="40"></circle>
    </g>
</svg> 